<svg width="24" height="24" viewBox="0 0 24 24" fill="none" xmlns="http://www.w3.org/2000/svg">
<rect width="24" height="24" rx="12" fill="#333333"/>
<path d="M5.43922 12.5483L5.38813 12.5239C5.27531 12.4602 5.18431 12.364 5.12703 12.2478C5.04494 12.1052 5.00117 11.9437 5 11.7791L5.01219 11.6984C5.01219 11.5738 5.04406 11.4617 5.10031 11.3544L5.15141 11.2616C5.17578 11.2105 5.21234 11.1664 5.24422 11.1247C5.26154 11.104 5.27351 11.0794 5.27906 11.053C5.28462 11.0266 5.2836 10.9992 5.27609 10.9733L5.24422 10.873C5.2062 10.752 5.18568 10.6262 5.18328 10.4994L5.16359 10.4239C5.16359 10.2847 5.20016 10.1478 5.28828 10.048L5.35156 9.96736C5.39563 9.90407 5.46406 9.86704 5.53953 9.84267C5.60047 9.82298 5.64453 9.7597 5.65203 9.68657L5.66422 9.47423C5.66422 9.30595 5.74484 9.14939 5.86953 9.03454L6.02094 8.92204C6.05047 8.89251 6.08188 8.86111 6.10625 8.80954C6.13813 8.77298 6.14516 8.72142 6.13813 8.68486C6.12594 8.62392 6.13813 8.60423 6.17 8.59673C6.27031 8.63564 6.33359 8.62345 6.37766 8.57236L6.45828 8.46736L6.68281 8.21611C6.71542 8.18202 6.73739 8.13918 6.74605 8.09282C6.75471 8.04645 6.74967 7.99856 6.73156 7.95501L6.65844 7.79142C6.64625 7.75486 6.65844 7.71079 6.69031 7.69861C6.77094 7.69861 6.82719 7.72814 6.85156 7.77923L6.87594 7.82329C6.91484 7.89876 7.00297 7.93579 7.06391 7.90392C7.17809 7.8626 7.29873 7.84196 7.42016 7.84298H7.62031C7.75719 7.84298 7.86922 7.74782 7.89641 7.60392C7.92078 7.43048 7.98172 7.29126 8.06984 7.19845C8.165 7.09111 8.27 7.01048 8.39469 6.9472C8.55828 6.86189 8.65859 6.73486 8.69 6.57361C8.73406 6.37345 8.83906 6.22954 8.98297 6.13673L9.45922 5.86814L9.59609 5.78517C9.67672 5.73642 9.75219 5.67267 9.81594 5.5972L9.94063 5.44814C9.99417 5.38843 10.0636 5.34519 10.1408 5.32345C10.2017 5.30376 10.2898 5.29157 10.3653 5.29907L10.6142 5.31595C10.7389 5.31595 10.8387 5.34782 10.9391 5.39142L11.0023 5.42329C11.0656 5.44767 11.127 5.43548 11.1584 5.39142L11.2147 5.35954L11.4833 5.07876C11.5108 5.04894 11.5453 5.02643 11.5837 5.01326C11.622 5.00008 11.6631 4.99666 11.7031 5.00329C11.7838 5.01548 11.8644 5.04736 11.9398 5.08626C12.0523 5.1472 12.1452 5.17157 12.2525 5.17157H12.3158C12.4527 5.17157 12.5891 5.19126 12.7283 5.22267L12.8211 5.24704C12.8667 5.25824 12.9145 5.25586 12.9587 5.2402C13.003 5.22454 13.0416 5.19629 13.07 5.15892C13.0744 5.15161 13.0804 5.14538 13.0875 5.14069C13.0946 5.13599 13.1027 5.13295 13.1112 5.13178C13.1196 5.13061 13.1282 5.13135 13.1363 5.13393C13.1445 5.13652 13.1519 5.14089 13.1581 5.14673C13.1778 5.15892 13.1825 5.17111 13.19 5.19079C13.2022 5.31548 13.2781 5.41064 13.378 5.4397L13.4783 5.47157C13.5833 5.50345 13.6784 5.57189 13.7394 5.65954C13.8027 5.75236 13.8786 5.84751 13.9639 5.90845L14.0272 5.97173C14.0582 6.00183 14.0956 6.02467 14.1365 6.03862C14.1774 6.05256 14.2209 6.05725 14.2639 6.05236H14.6323C14.7838 6.05236 14.9277 6.07907 15.072 6.14048C15.2089 6.20376 15.3528 6.21595 15.4822 6.16486C15.6214 6.12314 15.7653 6.10392 15.9092 6.12314L16.1778 6.16486C16.3025 6.17939 16.4267 6.24032 16.5027 6.33595L16.5345 6.36548C16.5955 6.42876 16.6592 6.50939 16.7202 6.59751C16.7405 6.63595 16.7711 6.66797 16.8086 6.68999C16.8461 6.71201 16.889 6.72316 16.9325 6.7222H17.3206C17.4158 6.7222 17.5086 6.74189 17.5845 6.78548C17.6652 6.84642 17.7336 6.91017 17.7969 6.97345L17.8578 7.05407C17.9333 7.1422 17.9703 7.25939 17.9652 7.38595C17.9652 7.48626 18.0406 7.57157 18.1386 7.57157L18.2656 7.58611C18.3538 7.58611 18.4269 7.64704 18.4709 7.72767L18.5342 7.8547L18.6955 8.21611C18.719 8.27153 18.7282 8.33198 18.7222 8.39189C18.7222 8.45282 18.7391 8.50439 18.7831 8.52876L18.8464 8.57282C18.8867 8.603 18.9184 8.6433 18.9381 8.68965C18.9579 8.73599 18.9651 8.78673 18.9589 8.83673L18.9148 9.1297L18.9027 9.25439C18.8975 9.28959 18.9018 9.32553 18.9151 9.35854C18.9283 9.39155 18.9501 9.42047 18.9781 9.44236C19.0709 9.50329 19.115 9.58626 19.1197 9.67907V9.80376C19.1197 9.86704 19.1075 9.94298 19.0588 9.99173C19.0171 10.0455 18.9948 10.1117 18.9955 10.1797L19.0152 10.3236C19.0152 10.4239 19.0761 10.5116 19.1398 10.5725C19.1815 10.6041 19.2163 10.6438 19.2423 10.6891C19.2683 10.7344 19.285 10.7845 19.2913 10.8364C19.3156 10.9925 19.3208 11.1172 19.3208 11.2419V11.3858C19.3208 11.4369 19.3208 11.4861 19.3405 11.5349C19.3544 11.5808 19.3827 11.621 19.4211 11.6497L19.5458 11.7425C19.6728 11.8231 19.7605 11.9305 19.8097 12.0744C19.873 12.2113 19.8903 12.3552 19.8903 12.4991V12.5478C19.8903 12.6603 19.8781 12.7799 19.8416 12.8849C19.8099 12.9878 19.8159 13.0986 19.8584 13.1975C19.9095 13.2856 19.9414 13.3855 19.9536 13.4928C19.978 13.6175 19.9658 13.7417 19.9217 13.842L19.9095 13.8861C19.8771 13.9627 19.8279 14.0311 19.7656 14.0863C19.7023 14.1495 19.6409 14.1866 19.6044 14.2302C19.5655 14.2667 19.5411 14.3305 19.5603 14.3863L19.5772 14.4744C19.6091 14.5991 19.6091 14.7233 19.5772 14.8358V14.8869C19.5528 14.9797 19.5163 15.0603 19.4769 15.1358C19.4347 15.2153 19.3702 15.2806 19.2913 15.3238L19.1961 15.3847C19.1731 15.3999 19.1541 15.4206 19.141 15.4449C19.1278 15.4692 19.1208 15.4963 19.1206 15.5239C19.1211 15.5834 19.0993 15.6409 19.0597 15.6852L18.9645 15.8122C18.9036 15.8928 18.823 15.9613 18.7348 15.9978C18.6556 16.0531 18.5819 16.1161 18.515 16.1858C18.4523 16.259 18.4057 16.3446 18.3781 16.437C18.3696 16.4858 18.3441 16.53 18.306 16.5618C18.268 16.5935 18.22 16.6108 18.1705 16.6105H17.8334C17.7453 16.6105 17.6652 16.6738 17.6281 16.7497C17.5928 16.8335 17.5443 16.9111 17.4842 16.9794C17.424 17.0426 17.3803 17.1197 17.3572 17.2039C17.345 17.2794 17.2841 17.3309 17.2203 17.3042C17.185 17.2881 17.145 17.2857 17.1081 17.2974C17.0711 17.309 17.0398 17.334 17.0202 17.3675C16.957 17.4772 16.8798 17.5782 16.7905 17.668L16.7464 17.7045C16.6634 17.7678 16.5584 17.817 16.4633 17.817C16.3508 17.817 16.295 17.8681 16.2777 17.9417C16.2579 18.0119 16.2449 18.0838 16.2388 18.1564C16.2254 18.2267 16.205 18.2955 16.1778 18.3617L16.1459 18.3983C16.0827 18.4934 16.0334 18.5863 15.9702 18.6669L15.9458 18.7058C15.8652 18.8108 15.7578 18.8938 15.6331 18.9233C15.5002 18.9678 15.3607 18.9892 15.2206 18.9866H15.1325C15.0985 18.9886 15.0654 18.9987 15.0361 19.0162C15.0068 19.0336 14.9822 19.0579 14.9642 19.0869L14.9277 19.1502L14.8888 19.2233L14.8081 19.3625C14.7785 19.4166 14.7384 19.4643 14.6902 19.5029C14.642 19.5414 14.5867 19.57 14.5273 19.587C14.3965 19.619 14.2615 19.6313 14.127 19.6236L14.0267 19.6114C13.9386 19.6114 13.8584 19.587 13.7778 19.5481C13.7145 19.5238 13.6264 19.5481 13.5898 19.6114C13.5364 19.6885 13.4592 19.746 13.37 19.775L13.182 19.8359C13.0529 19.8678 12.9179 19.8678 12.7888 19.8359L12.6884 19.8041C12.6255 19.7997 12.5648 19.7786 12.5127 19.7431C12.4558 19.7127 12.3914 19.6992 12.327 19.7042L12.2441 19.7188C12.1194 19.7309 12.0073 19.7188 11.8948 19.6869L11.7266 19.648C11.6489 19.6237 11.5823 19.5727 11.5386 19.5041C11.5192 19.47 11.4921 19.441 11.4595 19.4193C11.4268 19.3977 11.3895 19.384 11.3506 19.3794H11.1505C11.0258 19.3625 10.9138 19.3184 10.8378 19.2233L10.5889 18.9866L10.5008 18.9111L10.3639 18.8108L10.2833 18.7499C10.1859 18.6825 10.0736 18.6398 9.95609 18.6252L9.5825 18.5619C9.54359 18.5619 9.51922 18.5497 9.48219 18.5422L9.33828 18.5103C9.275 18.4981 9.21359 18.4494 9.17 18.3856C9.13344 18.3247 9.06266 18.2975 9.00172 18.3247C8.87703 18.3734 8.77719 18.3856 8.67688 18.4053H8.58875C8.42969 18.4191 8.26979 18.3913 8.12469 18.3247C7.97563 18.2614 7.87578 18.1686 7.78297 18.0486C7.7452 17.9933 7.69683 17.9461 7.64067 17.9096C7.5845 17.8732 7.52166 17.8482 7.45578 17.8363L7.28234 17.7997C7.15257 17.7728 7.02911 17.7214 6.91859 17.6483C6.79391 17.5602 6.73063 17.48 6.68188 17.3797C6.63113 17.2827 6.60112 17.1762 6.59375 17.067V17.0183C6.58156 16.8913 6.49344 16.7792 6.37625 16.7497C6.24932 16.7127 6.13193 16.6485 6.03219 16.5617C5.98804 16.52 5.95292 16.4696 5.92897 16.4137C5.90503 16.3578 5.89278 16.2977 5.89297 16.2369L5.9075 15.9608C5.9075 15.8534 5.87563 15.7606 5.80016 15.6922C5.72469 15.6167 5.67547 15.5239 5.67547 15.4236L5.65578 15.1991C5.64081 15.0345 5.61386 14.8713 5.57516 14.7106C5.53859 14.5667 5.59484 14.4224 5.71203 14.3544L5.75609 14.3225C5.7877 14.3012 5.81037 14.2691 5.81979 14.2322C5.82922 14.1953 5.82473 14.1562 5.80719 14.1224L5.75609 14.0614C5.70553 14.004 5.64068 13.961 5.56813 13.9367C5.51938 13.9222 5.50719 13.8734 5.50719 13.8416L5.56813 13.7661C5.58534 13.7451 5.59474 13.7187 5.59474 13.6916C5.59474 13.6644 5.58534 13.6381 5.56813 13.617C5.52261 13.5689 5.49427 13.5071 5.4875 13.4413L5.47531 13.0044C5.47531 12.9163 5.4875 12.8286 5.51188 12.7433C5.53859 12.6678 5.51188 12.5797 5.43875 12.5431L5.43922 12.5483ZM11.6258 11.7228C11.6698 11.6788 11.6623 11.5981 11.6258 11.5667C11.567 11.5209 11.518 11.4636 11.4819 11.3984L11.4186 11.2981C11.3763 11.2193 11.3219 11.1477 11.2573 11.0858L11.2452 11.0736C11.183 11.0232 11.1337 10.9588 11.1013 10.8856C11.0856 10.8568 11.0774 10.8245 11.0774 10.7917C11.0774 10.7588 11.0856 10.7265 11.1013 10.6977L11.1378 10.6367C11.1779 10.5686 11.1997 10.4912 11.2011 10.4122V10.3855C11.1979 10.3189 11.1759 10.2545 11.1378 10.1999C11.1102 10.144 11.0898 10.085 11.0769 10.0241V9.98751C11.0678 9.94957 11.0674 9.91006 11.0759 9.87196C11.0843 9.83387 11.1013 9.7982 11.1256 9.76767C11.1767 9.68704 11.2138 9.61157 11.233 9.51876V9.50423C11.2441 9.47018 11.2475 9.43407 11.2428 9.39855C11.2382 9.36303 11.2257 9.32899 11.2063 9.29892C11.1873 9.26959 11.1752 9.23633 11.171 9.20165C11.1668 9.16697 11.1705 9.13179 11.1819 9.09876L11.2259 8.97407C11.2625 8.86157 11.3211 8.76173 11.3942 8.67361L11.4823 8.58079L11.5456 8.50532L11.5822 8.46876C11.6007 8.44843 11.6119 8.42254 11.6141 8.39514C11.6163 8.36774 11.6094 8.34038 11.5944 8.31736C11.5613 8.26063 11.5484 8.19437 11.5578 8.12939L11.57 8.04126C11.5897 7.91657 11.6333 7.79236 11.7139 7.69204L11.7383 7.66767C11.8311 7.54298 11.9506 7.46001 12.0875 7.41642L12.2586 7.35548C12.3317 7.33111 12.3833 7.24814 12.3833 7.16751C12.3833 7.0672 12.4152 6.97954 12.4709 6.89892L12.5005 6.86704C12.5638 6.76204 12.6397 6.6547 12.6884 6.5422L12.7325 6.46157C12.7444 6.44255 12.7512 6.42074 12.7522 6.39829C12.7522 6.29329 12.6889 6.19814 12.5886 6.19298L12.3153 6.17329C12.1592 6.16111 12.0027 6.17329 11.8513 6.17329L11.3216 6.23657C11.2386 6.23657 11.1777 6.29751 11.1702 6.38564C11.1692 6.42718 11.1556 6.46745 11.1311 6.50104C11.1067 6.53464 11.0725 6.55996 11.0333 6.57361L10.8088 6.63454L10.7455 6.65423L10.5575 6.71751C10.4888 6.74005 10.4255 6.77666 10.3716 6.825C10.3178 6.87334 10.2746 6.93236 10.2448 6.99829L10.1961 7.07892C10.1317 7.21734 10.027 7.33304 9.89562 7.41079C9.77094 7.49142 9.70766 7.62314 9.69547 7.7722V7.83548C9.68328 7.96017 9.64438 8.08439 9.57078 8.17251L9.53891 8.22361C9.51412 8.2524 9.49798 8.28761 9.49234 8.32518C9.4867 8.36275 9.49179 8.40115 9.50703 8.43595C9.53891 8.50907 9.55813 8.59204 9.55109 8.67267V9.00454C9.55013 9.04414 9.53788 9.08264 9.5158 9.11552C9.49371 9.1484 9.4627 9.1743 9.42641 9.19017C9.385 9.20514 9.34796 9.23015 9.31859 9.26296C9.28922 9.29576 9.26845 9.33533 9.25813 9.37814L9.22625 9.50282C9.21296 9.56358 9.21767 9.62689 9.23982 9.68501C9.26196 9.74312 9.30058 9.79351 9.35094 9.83001C9.45125 9.90314 9.51453 10.0156 9.53891 10.1549V10.2674C9.55859 10.392 9.62703 10.5163 9.73906 10.58C9.85156 10.6555 9.93922 10.768 9.98797 10.8927L10.0198 10.993C10.041 11.0548 10.0793 11.1093 10.1304 11.15C10.1815 11.1907 10.2432 11.2159 10.3081 11.2227H10.3447C10.4572 11.2227 10.557 11.2859 10.6208 11.3863C10.6817 11.4866 10.782 11.5545 10.8941 11.5742L11.0698 11.623C11.1772 11.6549 11.2775 11.7111 11.3581 11.7913L11.3703 11.8058C11.4034 11.8303 11.4447 11.8411 11.4855 11.8361C11.5264 11.8312 11.5639 11.8108 11.5902 11.7791L11.6342 11.7303L11.6258 11.7228ZM12.3383 11.1491C12.3992 11.1856 12.463 11.1659 12.4873 11.1102L12.507 11.0806C12.5511 10.9925 12.6073 10.9049 12.6683 10.8294L12.7953 10.6414C12.8122 10.6414 12.8197 10.6292 12.8248 10.617L12.9762 10.4169C13.0395 10.3559 13.1131 10.3119 13.2008 10.3119C13.2409 10.3121 13.2803 10.3003 13.3137 10.2781C13.3472 10.2559 13.3733 10.2243 13.3888 10.1872C13.4131 10.0991 13.4497 10.0161 13.5256 9.94814L13.5575 9.91157C13.6208 9.84829 13.6822 9.81642 13.7455 9.78689C13.8261 9.7747 13.9016 9.76017 13.9775 9.76017H14.1631C14.2386 9.76017 14.3023 9.73064 14.3389 9.66736C14.3755 9.60407 14.4317 9.56236 14.495 9.53048L14.5583 9.50376C14.6586 9.46204 14.7706 9.43064 14.8831 9.41845L15.0078 9.40626C15.0833 9.40626 15.1639 9.40626 15.2398 9.44798C15.3008 9.49204 15.3838 9.48689 15.4452 9.43579L15.4892 9.41142C15.582 9.34814 15.6894 9.29892 15.8019 9.28673H15.8141C15.9341 9.26564 16.0562 9.25903 16.1778 9.26704H16.2388C16.3634 9.28673 16.4708 9.33032 16.5514 9.42314L16.5711 9.44751C16.6344 9.51079 16.7323 9.56236 16.82 9.56236H16.9273C16.9592 9.56236 16.9883 9.54782 17.008 9.51829C17.0292 9.49586 17.0579 9.48202 17.0886 9.47939H17.1519C17.24 9.47939 17.3202 9.50376 17.4008 9.53048L17.5081 9.57454C17.6084 9.60407 17.7134 9.63548 17.8208 9.64767H17.8963C17.945 9.64767 17.9769 9.61814 17.9769 9.57454C17.9792 9.51295 17.9639 9.45197 17.9328 9.39876L17.8888 9.29845C17.84 9.21782 17.8006 9.13017 17.7641 9.04954L17.7519 9.01767C17.7362 8.98882 17.728 8.95651 17.728 8.92368C17.728 8.89085 17.7362 8.85855 17.7519 8.8297V8.79782C17.7581 8.77291 17.7551 8.74659 17.7435 8.7237C17.7318 8.7008 17.7124 8.68285 17.6886 8.67314H17.6398C17.5411 8.64355 17.4535 8.58491 17.3886 8.50486L17.3277 8.44157C17.2644 8.38064 17.2273 8.28548 17.2006 8.19267C17.1711 8.11204 17.1031 8.04876 17.015 8.04876H16.7511C16.7053 8.04232 16.6613 8.02692 16.6214 8.00343C16.5816 7.97994 16.5468 7.94884 16.5191 7.91189L16.4947 7.88001C16.4495 7.81472 16.4142 7.74318 16.3897 7.66767C16.3578 7.60439 16.2894 7.56736 16.2261 7.58704L16.1506 7.61142C16.0259 7.65548 15.9017 7.67236 15.777 7.66017L15.6767 7.64798C15.5694 7.64798 15.4691 7.60392 15.3884 7.54298L15.3252 7.49892C15.2776 7.46225 15.225 7.43258 15.1691 7.41079C15.1081 7.38642 15.0566 7.39861 15.02 7.44267L14.9881 7.47923C14.9247 7.54521 14.8417 7.58895 14.7514 7.60392L14.4144 7.62361C14.3506 7.626 14.2903 7.65306 14.2461 7.69907C14.1977 7.7423 14.1386 7.77176 14.075 7.78439H14.0628C14.0019 7.78439 13.9381 7.82845 13.8772 7.87251V7.8847C13.8476 7.91482 13.8123 7.93875 13.7733 7.95508C13.7344 7.97142 13.6926 7.97984 13.6503 7.97986L13.6259 7.99204C13.5505 7.99204 13.4769 7.99204 13.4014 8.01173H13.3259C13.2209 8.02861 13.138 8.11673 13.1136 8.22923L13.0892 8.37314C13.0691 8.47116 13.0265 8.56314 12.9645 8.64173C12.9013 8.7172 12.8253 8.76642 12.7325 8.76642H12.6275C12.5642 8.78095 12.5005 8.84939 12.5127 8.92251C12.5272 9.02986 12.5127 9.12267 12.4958 9.21782L12.4714 9.32282C12.4607 9.3673 12.4396 9.40861 12.4098 9.44339C12.3801 9.47817 12.3426 9.50544 12.3003 9.52298L12.2638 9.54267H12.2516C12.215 9.56704 12.1883 9.62329 12.2197 9.66736C12.2557 9.72301 12.2713 9.78945 12.2638 9.85532L12.2441 10.0555C12.2401 10.1277 12.2192 10.198 12.1831 10.2608C12.1652 10.2885 12.1546 10.3203 12.1525 10.3532C12.1504 10.3861 12.1567 10.419 12.1709 10.4488L12.2319 10.5856C12.264 10.6473 12.271 10.719 12.2516 10.7858C12.2302 10.846 12.2218 10.9101 12.2272 10.9738C12.2272 11.037 12.2638 11.0984 12.3153 11.1252L12.3383 11.1491ZM17.2752 15.6683C17.3384 15.7292 17.4313 15.7536 17.5072 15.7049L17.6319 15.6242C17.6976 15.579 17.7459 15.5127 17.7688 15.4363V15.4241L17.832 15.2361L17.8686 15.1728L17.8953 15.1119L17.9197 15.0678C17.9311 15.0417 17.9483 15.0186 17.9698 15C17.9914 14.9814 18.0169 14.9679 18.0444 14.9605L18.0688 14.9483C18.1198 14.9361 18.1517 14.8874 18.1517 14.8358C18.1517 14.7749 18.1813 14.7233 18.2127 14.6797L18.2638 14.6356L18.3884 14.4744V14.4622C18.4249 14.4109 18.4506 14.3527 18.4639 14.2911C18.4743 14.228 18.4649 14.1631 18.4372 14.1055L18.425 14.0788C18.4031 14.0272 18.3883 13.973 18.3809 13.9175L18.3641 13.7417L18.3444 13.5538C18.3444 13.4928 18.3688 13.4291 18.4077 13.3681C18.4494 13.317 18.4808 13.2533 18.508 13.1924V13.168L18.5202 13.1558C18.5323 13.0925 18.5005 13.0288 18.4447 13.0288C18.3814 12.9992 18.32 12.9481 18.3008 12.8727L18.2811 12.8361C18.2504 12.7263 18.2341 12.613 18.2323 12.4991L18.2445 12.1864V12.1667C18.244 12.117 18.2241 12.0695 18.1889 12.0344C18.1538 11.9992 18.1063 11.9793 18.0566 11.9788H18.0444C17.9864 11.981 17.9287 11.9711 17.8748 11.9496C17.8209 11.9282 17.7722 11.8956 17.7317 11.8541L17.683 11.7908L17.5559 11.6492L17.3947 11.4613C17.3344 11.3742 17.2648 11.2941 17.187 11.2222C17.1261 11.1613 17.0309 11.0975 16.9381 11.0853L16.8134 11.0656C16.7381 11.0501 16.6662 11.0212 16.6011 10.9803C16.55 10.9414 16.4764 10.9536 16.4253 11.0047L16.3447 11.0928L16.3058 11.1172C16.2617 11.1294 16.2205 11.105 16.2008 11.0539C16.1744 10.9764 16.1787 10.8916 16.213 10.8172V10.7806C16.213 10.7366 16.1764 10.7052 16.1375 10.7174H16.0372C15.9242 10.7215 15.8117 10.7007 15.7077 10.6564L15.6444 10.6297C15.5806 10.598 15.5103 10.5813 15.4391 10.5809C15.3731 10.5795 15.308 10.5964 15.2511 10.6297L15.2267 10.6494C15.1513 10.6973 15.0647 10.7251 14.9755 10.73H14.7702C14.6795 10.7291 14.5912 10.7583 14.5189 10.813C14.4386 10.8612 14.3501 10.8942 14.2578 10.9105L14.0895 10.9372C14.0069 10.9546 13.9294 10.9905 13.8627 11.0422C13.8017 11.1055 13.7136 11.1425 13.633 11.1669L13.6011 11.1814C13.4986 11.2115 13.4103 11.2774 13.3522 11.367L13.2767 11.4425C13.2553 11.4715 13.2437 11.5066 13.2437 11.5426C13.2437 11.5786 13.2553 11.6137 13.2767 11.6427C13.3133 11.7059 13.3892 11.7233 13.4647 11.7059L13.5575 11.667C13.6062 11.6502 13.6648 11.667 13.7066 11.6914C13.7276 11.7084 13.7519 11.7211 13.7778 11.7286C13.8038 11.7362 13.8311 11.7385 13.858 11.7355L14.0141 11.7186C14.1022 11.7186 14.1898 11.7186 14.2752 11.743C14.3703 11.7749 14.4509 11.8063 14.5264 11.8677C14.5974 11.9253 14.6842 11.9603 14.7753 11.968C14.8705 11.9802 14.9633 11.9999 15.0514 12.0313L15.1123 12.0434C15.1756 12.0631 15.2272 12.1044 15.2638 12.1681C15.2956 12.2192 15.3247 12.2928 15.3247 12.3561V12.3758C15.3247 12.4489 15.388 12.5005 15.4517 12.5005H15.4883C15.5886 12.5005 15.6959 12.5127 15.8009 12.5445L15.845 12.5614C15.9124 12.5863 15.9709 12.6305 16.0133 12.6884C16.0644 12.7494 16.0939 12.8131 16.1136 12.8741L16.1333 12.9622C16.1502 13.0574 16.1577 13.1502 16.1577 13.2505V13.2824C16.1577 13.3433 16.2017 13.407 16.2702 13.4314C16.3334 13.4436 16.407 13.4703 16.4778 13.5069L16.5073 13.5191C16.5903 13.5678 16.6709 13.6316 16.7319 13.707L16.7638 13.7511C16.8467 13.8439 16.8884 13.9634 16.8884 14.0806V14.1247C16.8884 14.2199 16.8716 14.3127 16.8397 14.4008C16.8153 14.4763 16.8397 14.5644 16.9203 14.5888L16.9644 14.6206C17.0595 14.6572 17.1402 14.7256 17.2011 14.8063C17.2644 14.9014 17.2892 15.0064 17.2892 15.1189V15.3069C17.277 15.3702 17.2597 15.4194 17.2283 15.463C17.1969 15.5066 17.1964 15.5703 17.2283 15.6144L17.2648 15.6753L17.2752 15.6683ZM13.2758 12.4677H13.2636C13.2369 12.4677 13.2247 12.4995 13.2317 12.5309L13.2561 12.6556C13.2805 12.7559 13.2927 12.8558 13.3072 12.9561C13.3194 13.0564 13.3681 13.1417 13.4441 13.205H13.4684C13.5143 13.2411 13.552 13.2866 13.5789 13.3384C13.6058 13.3902 13.6214 13.4472 13.6245 13.5055V13.8181C13.6123 13.8791 13.6245 13.9428 13.6634 13.9939L13.693 14.0234C13.7505 14.095 13.7838 14.183 13.7881 14.2747L13.805 14.6188C13.805 14.6994 13.7563 14.7678 13.6803 14.78L13.6194 14.7922C13.5753 14.7922 13.5561 14.8433 13.5561 14.8874C13.5561 14.9361 13.5758 14.9924 13.5927 15.0434V15.0556C13.6123 15.1166 13.6194 15.1803 13.6123 15.2436L13.588 15.4119C13.565 15.5341 13.5229 15.652 13.4633 15.7611L13.4192 15.8366C13.3921 15.8912 13.3473 15.9351 13.2922 15.9613C13.2626 15.9734 13.236 15.992 13.2145 16.0157C13.1929 16.0394 13.1769 16.0675 13.1675 16.0981L13.1188 16.3227C13.0833 16.4554 13.0282 16.5822 12.9552 16.6986H12.943C12.8684 16.8008 12.7726 16.8857 12.6622 16.9475L12.5867 16.9986L12.3988 17.0914C12.3688 17.1052 12.3428 17.1263 12.3232 17.1528C12.3035 17.1792 12.2908 17.2102 12.2863 17.2428L12.2567 17.4481C12.237 17.5728 12.1934 17.6802 12.1053 17.7608L12.0247 17.8559L11.9295 17.9488L11.8367 18.0491C11.7613 18.1372 11.6488 18.1738 11.5241 18.1564L11.2995 18.1124L11.0919 18.0856H11.0356C11.0113 18.1124 11.0061 18.1489 11.0234 18.1859C11.0675 18.2614 11.1359 18.313 11.2114 18.313L11.3483 18.3374C11.4116 18.3374 11.4875 18.3692 11.5484 18.3983C11.6117 18.4424 11.6731 18.4738 11.7486 18.4934H11.7608C11.8438 18.5253 11.9291 18.53 12.012 18.5253L12.1048 18.5108C12.2122 18.4986 12.3125 18.5108 12.3978 18.5497L12.4733 18.5741C12.5052 18.5863 12.5539 18.5741 12.5858 18.5422C12.6216 18.5073 12.6639 18.4799 12.7105 18.4616L12.7616 18.4494C12.8422 18.425 12.9228 18.4105 13.0105 18.4105H13.0616C13.1347 18.4105 13.2055 18.425 13.2669 18.4616L13.2913 18.4738C13.3353 18.4934 13.3864 18.4738 13.4183 18.4372C13.4352 18.3931 13.4792 18.3491 13.5233 18.3125L13.6794 18.2052L13.7797 18.1419L13.8308 18.1124C13.8977 18.0694 13.9758 18.0474 14.0553 18.0491L14.2798 18.0294C14.3235 18.0238 14.3646 18.0056 14.398 17.977C14.4314 17.9483 14.4557 17.9105 14.4678 17.8681C14.4922 17.773 14.5288 17.6802 14.5925 17.5995C14.6558 17.5166 14.7172 17.4481 14.7805 17.3872C14.8508 17.3283 14.9379 17.2932 15.0294 17.2869H15.0805C15.1291 17.2771 15.1727 17.2505 15.2035 17.2116C15.2344 17.1727 15.2504 17.1241 15.2488 17.0745V16.6545C15.2609 16.5936 15.2853 16.5106 15.3219 16.4492L15.4489 16.2613L15.4977 16.198C15.5366 16.1661 15.5609 16.1249 15.605 16.0733L15.6659 15.9927C15.7048 15.9294 15.7048 15.8488 15.6538 15.7925C15.5951 15.7263 15.5585 15.6436 15.5488 15.5558V15.5291C15.5339 15.4248 15.5397 15.3185 15.5656 15.2164V15.1869C15.5975 15.1039 15.6411 15.0233 15.6927 14.9478C15.7165 14.9186 15.7278 14.8812 15.7241 14.8437C15.7205 14.8062 15.7021 14.7716 15.673 14.7477L15.5656 14.6549C15.4798 14.5771 15.4266 14.4698 15.4166 14.3544L15.4044 14.2297C15.4044 14.1908 15.4044 14.1491 15.3922 14.105L15.38 14.0099C15.372 13.9591 15.3533 13.9107 15.3251 13.8677C15.2969 13.8248 15.2598 13.7884 15.2164 13.7609L15.1723 13.7488C15.1029 13.7053 15.0431 13.648 14.9966 13.5805C14.9478 13.5172 14.9234 13.4291 14.9038 13.3414L14.8841 13.2364C14.8841 13.1975 14.8597 13.1731 14.8231 13.1558L14.5227 13.0606C14.4594 13.0484 14.398 12.9997 14.3544 12.9556H14.3422C14.3033 12.9045 14.2419 12.9045 14.203 12.9411L14.142 13.0044C14.1298 13.0241 14.1153 13.0288 14.098 13.0241C14.0591 13.0241 14.0347 12.9922 14.0469 12.9608C14.0539 12.9119 14.0479 12.862 14.0294 12.8161C14.011 12.7703 13.9808 12.7301 13.9419 12.6997L13.8589 12.6364L13.6733 12.5117C13.6222 12.492 13.5463 12.5117 13.5219 12.5727L13.4975 12.6116C13.4975 12.6238 13.4778 12.6284 13.4731 12.6359C13.4464 12.6359 13.4098 12.6359 13.4098 12.6041L13.3902 12.5722C13.3733 12.5356 13.3292 12.5113 13.2898 12.4991L13.2758 12.4677ZM12.5263 13.0925L12.4944 13.0606C12.4625 13.0363 12.4311 13.0409 12.3992 13.0728C12.3543 13.1472 12.3205 13.2277 12.2989 13.3119V13.3241C12.282 13.4047 12.2061 13.4609 12.1306 13.4488H12.0575C12.0155 13.4496 11.9755 13.4671 11.9463 13.4973C11.917 13.5275 11.9009 13.568 11.9014 13.61C11.9014 13.7225 11.8625 13.8369 11.7941 13.9227L11.7575 13.9616C11.6918 14.0408 11.6045 14.0993 11.5063 14.1299L11.4575 14.142C11.4256 14.1502 11.3968 14.1675 11.3746 14.1918C11.3525 14.2161 11.3379 14.2464 11.3328 14.2789C11.3328 14.3422 11.2939 14.4059 11.2447 14.4547L11.1814 14.5034C11.1059 14.5864 10.9934 14.6305 10.8809 14.6427L10.5683 14.6745C10.468 14.6745 10.3827 14.7355 10.3194 14.8306C10.2561 14.9234 10.1633 14.9867 10.0705 14.9989L9.93125 15.0111C9.82711 15.0252 9.72132 15.0211 9.61859 14.9989L9.55766 14.9867L9.38656 14.9427C9.36026 14.9332 9.33162 14.9323 9.30481 14.9403C9.27799 14.9482 9.25441 14.9645 9.2375 14.9867L9.17422 15.0674C9.13603 15.1118 9.08765 15.1464 9.0332 15.1681C8.97876 15.1898 8.91987 15.198 8.86156 15.192L8.45609 15.1433C8.39281 15.1433 8.34359 15.1114 8.28781 15.08C8.22453 15.0434 8.18047 14.9994 8.13641 14.9553L7.98031 14.7674C7.96344 14.7552 7.93156 14.7477 7.89969 14.7552L7.81156 14.7917L7.46234 14.8799C7.39906 14.8995 7.31844 14.8799 7.25703 14.8433C7.19375 14.7922 7.11781 14.78 7.04234 14.78H6.96172C6.94341 14.7847 6.92623 14.793 6.9112 14.8044C6.89617 14.8158 6.8836 14.8302 6.87424 14.8466C6.86487 14.863 6.85891 14.8811 6.85671 14.8999C6.8545 14.9187 6.8561 14.9377 6.86141 14.9558L6.88578 15.0805C6.90547 15.1438 6.90031 15.2174 6.86891 15.2806C6.8375 15.3439 6.84453 15.4053 6.88578 15.4686L6.92469 15.5174C6.97344 15.5928 7.04938 15.6566 7.11266 15.7175C7.17359 15.7808 7.23734 15.8422 7.28609 15.9252L7.38125 16.0934C7.40186 16.1352 7.4339 16.1702 7.47366 16.1945C7.51341 16.2187 7.55923 16.2311 7.60578 16.2303C7.69859 16.2303 7.79375 16.2622 7.86688 16.3231L8.05484 16.4989C8.10594 16.543 8.17953 16.55 8.23063 16.5111L8.2625 16.4989C8.29906 16.4989 8.32344 16.5233 8.32344 16.5622V16.5941C8.32344 16.6747 8.38672 16.7502 8.46734 16.7797L8.74813 16.843C8.84844 16.8749 8.94828 16.9063 9.04344 16.9677H9.09219C9.10481 16.9676 9.11729 16.9649 9.12879 16.9597C9.14028 16.9545 9.15054 16.9469 9.15887 16.9374C9.16721 16.9279 9.17343 16.9168 9.17712 16.9047C9.18082 16.8926 9.18191 16.8799 9.18031 16.8674V16.6499C9.18031 16.5866 9.20469 16.5228 9.25578 16.4984L9.28766 16.4863C9.31719 16.4984 9.34859 16.5228 9.33641 16.5495V16.6545C9.33641 16.7352 9.36078 16.8106 9.41703 16.8669C9.44364 16.8951 9.47789 16.915 9.5156 16.924C9.55331 16.9331 9.59284 16.931 9.62938 16.918C9.70484 16.8861 9.78078 16.8791 9.86141 16.8861L10.0934 16.8983C10.2059 16.9105 10.3109 16.8983 10.4061 16.8542C10.5186 16.8177 10.6114 16.7661 10.6991 16.6981L10.7356 16.6738L10.9236 16.5055C10.9814 16.446 11.0605 16.4118 11.1434 16.4103H11.3923C11.4557 16.402 11.5145 16.3731 11.5598 16.3281C11.6052 16.2832 11.6346 16.2246 11.6436 16.1614L11.668 16.0367C11.668 15.9538 11.7045 15.8806 11.7608 15.8169C11.8241 15.7536 11.8855 15.7166 11.9488 15.6922L12.0242 15.6603C12.0772 15.6372 12.1246 15.603 12.1633 15.5601C12.202 15.5172 12.2312 15.4665 12.2488 15.4114L12.2853 15.26C12.3172 15.1353 12.3805 15.0111 12.4733 14.9305L12.4855 14.9159C12.5609 14.855 12.5736 14.7303 12.5244 14.6427L12.5047 14.5986C12.4828 14.5636 12.4696 14.5238 12.4662 14.4826C12.4628 14.4415 12.4692 14.4001 12.485 14.3619C12.5169 14.2738 12.5483 14.1983 12.5975 14.1228L12.6608 14.0347C12.6852 13.9859 12.6852 13.91 12.6486 13.8664C12.6089 13.8172 12.5867 13.7562 12.5853 13.693L12.5731 13.6049V13.3925C12.5824 13.3227 12.5757 13.2517 12.5534 13.1849L12.5291 13.1117L12.5263 13.0925ZM11.6328 12.6163V12.5994C11.6328 12.5361 11.5939 12.4991 11.5447 12.4991H11.3811C11.3231 12.5113 11.2633 12.5113 11.2053 12.4991H10.9245C10.7806 12.4991 10.6437 12.4724 10.5069 12.4358L10.3555 12.3992L10.2308 12.3603L9.95 12.2675C9.87793 12.2469 9.81106 12.2113 9.75384 12.1628C9.69662 12.1144 9.65036 12.0544 9.61812 11.9867L9.58625 11.9234C9.54219 11.8306 9.44938 11.7795 9.35656 11.7988C9.24922 11.7988 9.14422 11.7988 9.04391 11.75L8.96844 11.7181C8.82453 11.6549 8.71953 11.5302 8.71953 11.3619L8.69281 11.1936C8.67594 11.1055 8.61969 11.0253 8.54375 10.9934C8.45589 10.953 8.37181 10.9049 8.2925 10.8495L8.26297 10.8299C8.16416 10.7543 8.08809 10.6529 8.04313 10.5369L8.03094 10.5003C7.99877 10.3991 7.99456 10.2911 8.01875 10.1877L8.03094 10.1488C8.05531 10.0681 8.06281 9.98751 8.06281 9.89986C8.06187 9.82175 8.03021 9.74715 7.97469 9.6922L7.88656 9.61157C7.83667 9.57127 7.79588 9.52086 7.76688 9.46366C7.73787 9.40646 7.72131 9.34376 7.71828 9.2797C7.70398 9.14633 7.70808 9.01164 7.73047 8.87939V8.84282C7.73035 8.80979 7.71717 8.77815 7.69381 8.75479C7.67046 8.73144 7.63881 8.71826 7.60578 8.71814H7.58609C7.50547 8.71814 7.43703 8.76689 7.39813 8.84282C7.36703 8.92561 7.32059 9.00179 7.26125 9.06736L7.23688 9.09923L7.04891 9.2872C6.98563 9.34814 6.94859 9.44329 6.93641 9.53611C6.9247 9.6313 6.89928 9.72429 6.86094 9.8122L6.84875 9.84407C6.81858 9.91854 6.76886 9.98348 6.70484 10.032C6.67412 10.0555 6.64883 10.0853 6.6307 10.1195C6.61258 10.1536 6.60205 10.1913 6.59984 10.2299L6.58766 10.5181C6.58766 10.6428 6.56797 10.7694 6.52438 10.8941L6.51219 10.9428C6.4962 10.9806 6.49509 11.023 6.50909 11.0615C6.52309 11.1 6.55116 11.1318 6.58766 11.1505L6.84875 11.263L6.87313 11.2752C6.89281 11.2752 6.89984 11.2874 6.905 11.307C6.92469 11.3314 6.905 11.368 6.88531 11.368L6.82438 11.3999C6.78781 11.412 6.76109 11.4509 6.74891 11.495L6.73672 11.5559V11.5681L6.67344 11.9197C6.66125 11.9684 6.66125 12.0247 6.66125 12.0809C6.66129 12.1051 6.66848 12.1286 6.68191 12.1487C6.69535 12.1687 6.71442 12.1843 6.73672 12.1934L6.87359 12.2567C6.93688 12.2933 7.01281 12.3374 7.06156 12.3814L7.12484 12.4325C7.14438 12.458 7.16936 12.4788 7.19797 12.4934L7.22469 12.5178C7.26774 12.5559 7.29842 12.6061 7.31281 12.6617L7.37375 12.9425C7.37375 13.018 7.43703 13.0817 7.49844 13.0986L7.59875 13.1305C7.59875 13.1305 7.61844 13.1305 7.63063 13.1427L7.75531 13.1816C7.85563 13.2134 7.94328 13.2697 8.01922 13.3428C8.09469 13.4061 8.16828 13.4867 8.23156 13.5749L8.25594 13.5992C8.30703 13.6625 8.38063 13.6944 8.45609 13.6747C8.53156 13.655 8.61219 13.6503 8.69281 13.6503H8.78797C8.84891 13.6503 8.93187 13.6672 9.00031 13.7113C9.06125 13.7502 9.14422 13.7745 9.21781 13.8064H9.2375C9.27332 13.8208 9.31213 13.826 9.35048 13.8218C9.38883 13.8175 9.42554 13.8039 9.45734 13.782C9.52122 13.7317 9.60056 13.705 9.68188 13.7066L9.97484 13.7234C10.0381 13.7234 10.0995 13.7113 10.1309 13.6625H10.1431L10.2505 13.5622L10.2823 13.5303C10.3071 13.502 10.3374 13.4791 10.3715 13.4631C10.4056 13.4472 10.4426 13.4384 10.4802 13.4375H10.7633C10.8364 13.4375 10.9072 13.3742 10.9367 13.3128C10.9531 13.2802 10.9769 13.2517 11.006 13.2297C11.0352 13.2076 11.0691 13.1926 11.105 13.1858L11.232 13.1614C11.2808 13.1614 11.3248 13.1174 11.3445 13.0611C11.3595 13.0031 11.3919 12.9511 11.4373 12.912L11.5377 12.8117C11.5949 12.7589 11.6327 12.6884 11.645 12.6116L11.6328 12.6163Z" fill="white"/>
</svg>
