<svg width="24" height="24" viewBox="0 0 24 24" fill="none" xmlns="http://www.w3.org/2000/svg">
<g clip-path="url(#clip0_129_11)">
<path d="M0.762015 12.1996L0.680265 12.1606C0.499757 12.0587 0.354169 11.9047 0.262515 11.7188C0.131162 11.4906 0.0611399 11.2322 0.0592651 10.9688L0.0787651 10.8398C0.0787651 10.6403 0.129765 10.4611 0.219765 10.2893L0.301515 10.1408C0.340515 10.0591 0.399015 9.98858 0.450015 9.92183C0.477728 9.88873 0.496874 9.84932 0.505768 9.80708C0.514662 9.76483 0.513029 9.72105 0.501015 9.67958L0.450015 9.51908C0.389189 9.3255 0.356356 9.12421 0.352515 8.92133L0.321015 8.80058C0.321015 8.57783 0.379515 8.35883 0.520515 8.19908L0.621765 8.07008C0.692265 7.96883 0.801765 7.90958 0.922515 7.87058C1.02002 7.83908 1.09052 7.73783 1.10252 7.62083L1.12202 7.28108C1.12202 7.01183 1.25102 6.76133 1.45052 6.57758L1.69277 6.39758C1.74002 6.35033 1.79027 6.30008 1.82927 6.21758C1.88027 6.15908 1.89152 6.07658 1.88027 6.01808C1.86077 5.92058 1.88027 5.88908 1.93127 5.87708C2.09177 5.93933 2.19302 5.91983 2.26352 5.83808L2.39252 5.67008L2.75177 5.26808C2.80394 5.21355 2.8391 5.14501 2.85295 5.07082C2.8668 4.99663 2.85874 4.92002 2.82977 4.85033L2.71277 4.58858C2.69327 4.53008 2.71277 4.45958 2.76377 4.44008C2.89277 4.44008 2.98276 4.48733 3.02176 4.56908L3.06077 4.63958C3.12302 4.76033 3.26402 4.81958 3.36152 4.76858C3.54421 4.70247 3.73723 4.66946 3.93152 4.67108H4.25177C4.47077 4.67108 4.65002 4.51883 4.69352 4.28858C4.73252 4.01108 4.83001 3.78833 4.97101 3.63983C5.12326 3.46808 5.29127 3.33908 5.49077 3.23783C5.75252 3.10133 5.91302 2.89808 5.96327 2.64008C6.03377 2.31983 6.20176 2.08958 6.43201 1.94108L7.19401 1.51133L7.41301 1.37858C7.54201 1.30058 7.66276 1.19858 7.76476 1.07783L7.96427 0.839333C8.04993 0.743808 8.161 0.674616 8.28451 0.639833C8.38201 0.608333 8.52301 0.588833 8.64376 0.600833L9.04201 0.627833C9.24151 0.627833 9.40126 0.678833 9.56176 0.748583L9.66301 0.799583C9.76426 0.838583 9.86251 0.819083 9.91276 0.748583L10.0028 0.697583L10.4325 0.248333C10.4765 0.20062 10.5317 0.164604 10.5931 0.143525C10.6545 0.122447 10.7202 0.116968 10.7843 0.127583C10.9133 0.147083 11.0423 0.198083 11.163 0.260333C11.343 0.357833 11.4915 0.396833 11.6633 0.396833H11.7645C11.9835 0.396833 12.2018 0.428333 12.4245 0.478583L12.573 0.517583C12.6459 0.535494 12.7225 0.531688 12.7932 0.506635C12.864 0.481581 12.9259 0.436374 12.9713 0.376583C12.9783 0.364893 12.9879 0.354926 12.9993 0.347413C13.0107 0.339899 13.0236 0.335029 13.0371 0.33316C13.0506 0.33129 13.0644 0.332468 13.0774 0.336608C13.0904 0.340747 13.1023 0.347743 13.1123 0.357083C13.1438 0.376583 13.1513 0.396083 13.1633 0.427583C13.1828 0.627083 13.3043 0.779333 13.464 0.825833L13.6245 0.876833C13.7925 0.927833 13.9448 1.03733 14.0423 1.17758C14.1435 1.32608 14.265 1.47833 14.4015 1.57583L14.5028 1.67708C14.5524 1.72524 14.6122 1.76179 14.6777 1.7841C14.7432 1.80641 14.8128 1.81391 14.8815 1.80608H15.471C15.7133 1.80608 15.9435 1.84883 16.1745 1.94708C16.3935 2.04833 16.6238 2.06783 16.8308 1.98608C17.0535 1.91933 17.2838 1.88858 17.514 1.91933L17.9438 1.98608C18.1433 2.00933 18.342 2.10683 18.4635 2.25983L18.5145 2.30708C18.612 2.40833 18.714 2.53733 18.8115 2.67833C18.8441 2.73983 18.8931 2.79106 18.9531 2.8263C19.0131 2.86153 19.0817 2.87937 19.1513 2.87783H19.7723C19.9245 2.87783 20.073 2.90933 20.1945 2.97908C20.3235 3.07658 20.433 3.17858 20.5343 3.27983L20.6318 3.40883C20.7525 3.54983 20.8118 3.73733 20.8035 3.93983C20.8035 4.10033 20.9243 4.23683 21.081 4.23683L21.2843 4.26008C21.4253 4.26008 21.5423 4.35758 21.6128 4.48658L21.714 4.68983L21.972 5.26808C22.0096 5.35677 22.0243 5.45348 22.0148 5.54933C22.0148 5.64683 22.0418 5.72933 22.1123 5.76833L22.2135 5.83883C22.2781 5.88712 22.3287 5.9516 22.3603 6.02575C22.3919 6.0999 22.4034 6.18108 22.3935 6.26108L22.323 6.72983L22.3035 6.92933C22.2953 6.98566 22.3022 7.04316 22.3234 7.09598C22.3446 7.1488 22.3794 7.19507 22.4243 7.23008C22.5728 7.32758 22.6433 7.46033 22.6508 7.60883V7.80833C22.6508 7.90958 22.6313 8.03108 22.5533 8.10908C22.4866 8.19504 22.4509 8.30103 22.452 8.40983L22.4835 8.64008C22.4835 8.80058 22.581 8.94083 22.683 9.03833C22.7496 9.08892 22.8053 9.15236 22.847 9.22489C22.8886 9.29742 22.9152 9.37757 22.9253 9.46058C22.9643 9.71033 22.9725 9.90983 22.9725 10.1093V10.3396C22.9725 10.4213 22.9725 10.5001 23.004 10.5781C23.0263 10.6515 23.0715 10.7159 23.133 10.7618L23.3325 10.9103C23.5358 11.0393 23.676 11.2111 23.7548 11.4413C23.856 11.6603 23.8838 11.8906 23.8838 12.1208V12.1988C23.8838 12.3788 23.8643 12.5701 23.8058 12.7381C23.7551 12.9028 23.7647 13.0801 23.8328 13.2383C23.9145 13.3793 23.9655 13.5391 23.985 13.7108C24.024 13.9103 24.0045 14.1091 23.934 14.2696L23.9145 14.3401C23.8626 14.4626 23.7839 14.5721 23.6843 14.6603C23.583 14.7616 23.4848 14.8208 23.4263 14.8906C23.364 14.9491 23.325 15.0511 23.3558 15.1403L23.3828 15.2813C23.4338 15.4808 23.4338 15.6796 23.3828 15.8596V15.9413C23.3438 16.0898 23.2853 16.2188 23.2223 16.3396C23.1548 16.4668 23.0516 16.5713 22.9253 16.6403L22.773 16.7378C22.7362 16.7622 22.7059 16.7953 22.6848 16.8341C22.6637 16.873 22.6526 16.9164 22.6523 16.9606C22.653 17.0557 22.6182 17.1477 22.5548 17.2186L22.4025 17.4218C22.305 17.5508 22.176 17.6603 22.035 17.7188C21.9082 17.8073 21.7903 17.908 21.6833 18.0196C21.5829 18.1368 21.5083 18.2737 21.4643 18.4216C21.4506 18.4996 21.4098 18.5703 21.3489 18.6211C21.2881 18.6719 21.2113 18.6996 21.132 18.6991H20.5928C20.4518 18.6991 20.3235 18.8003 20.2643 18.9218C20.2078 19.0559 20.1301 19.18 20.034 19.2893C19.9376 19.3904 19.8678 19.5139 19.8308 19.6486C19.8113 19.7693 19.7138 19.8518 19.6118 19.8091C19.5553 19.7833 19.4913 19.7794 19.4322 19.7981C19.373 19.8168 19.3229 19.8568 19.2915 19.9103C19.1904 20.0859 19.0669 20.2475 18.924 20.3911L18.8535 20.4496C18.7208 20.5508 18.5528 20.6296 18.4005 20.6296C18.2205 20.6296 18.1313 20.7113 18.1035 20.8291C18.072 20.9414 18.0511 21.0564 18.0413 21.1726C18.0199 21.2851 17.9872 21.3951 17.9438 21.5011L17.8928 21.5596C17.7915 21.7118 17.7128 21.8603 17.6115 21.9893L17.5725 22.0516C17.4435 22.2196 17.2718 22.3523 17.0723 22.3996C16.8597 22.4707 16.6364 22.505 16.4123 22.5008H16.2713C16.2168 22.504 16.1639 22.5202 16.117 22.5482C16.0702 22.5761 16.0307 22.6149 16.002 22.6613L15.9435 22.7626L15.8813 22.8796L15.7523 23.1023C15.7048 23.1889 15.6407 23.2652 15.5636 23.3269C15.4865 23.3885 15.3979 23.4343 15.303 23.4616C15.0936 23.5127 14.8777 23.5324 14.6625 23.5201L14.502 23.5006C14.361 23.5006 14.2328 23.4616 14.1038 23.3993C14.0025 23.3603 13.8615 23.3993 13.803 23.5006C13.7175 23.6239 13.594 23.7158 13.4513 23.7623L13.1505 23.8598C12.9439 23.9109 12.7279 23.9109 12.5213 23.8598L12.3608 23.8088C12.26 23.8018 12.163 23.7681 12.0795 23.7113C11.9885 23.6626 11.8854 23.641 11.7825 23.6491L11.6498 23.6723C11.4503 23.6918 11.271 23.6723 11.091 23.6213L10.8218 23.5591C10.6975 23.5203 10.5909 23.4387 10.521 23.3288C10.49 23.2743 10.4467 23.2279 10.3944 23.1932C10.3422 23.1586 10.2825 23.1367 10.2203 23.1293H9.90001C9.70051 23.1023 9.52126 23.0318 9.39976 22.8796L9.00151 22.5008L8.86051 22.3801L8.64152 22.2196L8.51252 22.1221C8.35663 22.0144 8.17704 21.9459 7.98902 21.9226L7.39126 21.8213C7.32901 21.8213 7.29001 21.8018 7.23076 21.7898L7.00051 21.7388C6.89926 21.7193 6.80102 21.6413 6.73127 21.5393C6.67277 21.4418 6.55951 21.3983 6.46201 21.4418C6.26251 21.5198 6.10277 21.5393 5.94227 21.5708H5.80127C5.54677 21.5928 5.29093 21.5484 5.05877 21.4418C4.82027 21.3406 4.66051 21.1921 4.51201 21.0001C4.45159 20.9116 4.3742 20.836 4.28433 20.7777C4.19447 20.7194 4.09392 20.6795 3.98852 20.6603L3.71102 20.6018C3.50337 20.5588 3.30584 20.4766 3.12902 20.3596C2.92952 20.2186 2.82827 20.0903 2.75027 19.9298C2.66907 19.7747 2.62105 19.6043 2.60927 19.4296V19.3516C2.58977 19.1483 2.44877 18.9691 2.26127 18.9218C2.05817 18.8626 1.87035 18.76 1.71077 18.6211C1.64013 18.5542 1.58393 18.4736 1.54562 18.3843C1.50731 18.2949 1.48771 18.1986 1.48802 18.1013L1.51127 17.6596C1.51127 17.4878 1.46027 17.3393 1.33952 17.2298C1.21877 17.1091 1.14002 16.9606 1.14002 16.8001L1.10852 16.4408C1.08456 16.1775 1.04144 15.9164 0.979515 15.6593C0.921015 15.4291 1.01102 15.1981 1.19852 15.0893L1.26902 15.0383C1.31958 15.0043 1.35586 14.9528 1.37093 14.8938C1.38601 14.8347 1.37883 14.7722 1.35077 14.7181L1.26902 14.6206C1.18812 14.5287 1.08436 14.4599 0.968265 14.4211C0.890265 14.3978 0.870765 14.3198 0.870765 14.2688L0.968265 14.1481C0.995805 14.1144 1.01085 14.0723 1.01085 14.0288C1.01085 13.9854 0.995805 13.9432 0.968265 13.9096C0.895446 13.8326 0.850096 13.7337 0.839265 13.6283L0.819765 12.9293C0.819765 12.7883 0.839265 12.6481 0.878265 12.5116C0.921015 12.3908 0.878265 12.2498 0.761265 12.1913L0.762015 12.1996ZM10.6605 10.8788C10.731 10.8083 10.719 10.6793 10.6605 10.6291C10.5664 10.5557 10.4881 10.4641 10.4303 10.3598L10.329 10.1993C10.2614 10.0732 10.1743 9.95856 10.071 9.85958L10.0515 9.84008C9.95205 9.75946 9.87314 9.65639 9.82126 9.53933C9.79619 9.49318 9.78305 9.44149 9.78305 9.38896C9.78305 9.33643 9.79619 9.28474 9.82126 9.23858L9.87977 9.14108C9.94386 9.03204 9.97874 8.9083 9.98101 8.78183V8.73908C9.97588 8.63253 9.94078 8.52959 9.87977 8.44208C9.83566 8.35277 9.80291 8.25828 9.78226 8.16083V8.10233C9.7677 8.04163 9.76715 7.9784 9.78067 7.91746C9.79418 7.85651 9.8214 7.79944 9.86027 7.75058C9.94202 7.62158 10.0013 7.50083 10.032 7.35233V7.32908C10.0498 7.2746 10.0552 7.21683 10.0478 7.16C10.0404 7.10316 10.0204 7.0487 9.98926 7.00058C9.95889 6.95366 9.93959 6.90044 9.93283 6.84496C9.92607 6.78947 9.93203 6.73317 9.95026 6.68033L10.0208 6.48083C10.0793 6.30083 10.173 6.14108 10.29 6.00008L10.431 5.85158L10.5323 5.73083L10.5908 5.67233C10.6204 5.6398 10.6383 5.59837 10.6419 5.55454C10.6454 5.5107 10.6343 5.46693 10.6103 5.43008C10.5573 5.33932 10.5367 5.23331 10.5518 5.12933L10.5713 4.98833C10.6028 4.78883 10.6725 4.59008 10.8015 4.42958L10.8405 4.39058C10.989 4.19108 11.1803 4.05833 11.3993 3.98858L11.673 3.89108C11.79 3.85208 11.8725 3.71933 11.8725 3.59033C11.8725 3.42983 11.9235 3.28958 12.0128 3.16058L12.06 3.10958C12.1613 2.94158 12.2828 2.76983 12.3608 2.58983L12.4313 2.46083C12.4504 2.43039 12.4612 2.3955 12.4628 2.35958C12.4628 2.19158 12.3615 2.03933 12.201 2.03108L11.7638 1.99958C11.514 1.98008 11.2635 1.99958 11.0213 1.99958L10.1738 2.10083C10.041 2.10083 9.94351 2.19833 9.93151 2.33933C9.93001 2.40581 9.90822 2.47023 9.86908 2.52398C9.82994 2.57773 9.77532 2.61824 9.71251 2.64008L9.35326 2.73758L9.25202 2.76908L8.95127 2.87033C8.84127 2.9064 8.73999 2.96497 8.65386 3.04231C8.56774 3.11966 8.49866 3.21408 8.45101 3.31958L8.37301 3.44858C8.27004 3.67006 8.10244 3.85517 7.89226 3.97958C7.69276 4.10858 7.59151 4.31933 7.57201 4.55783V4.65908C7.55251 4.85858 7.49026 5.05733 7.37251 5.19833L7.32151 5.28008C7.28186 5.32615 7.25603 5.38249 7.24701 5.4426C7.23798 5.50271 7.24613 5.56415 7.27051 5.61983C7.32151 5.73683 7.35226 5.86958 7.34101 5.99858V6.52958C7.33947 6.59294 7.31988 6.65454 7.28454 6.70715C7.2492 6.75976 7.19958 6.80119 7.14152 6.82658C7.07527 6.85054 7.016 6.89056 6.96901 6.94304C6.92202 6.99553 6.88878 7.05885 6.87226 7.12733L6.82126 7.32683C6.79999 7.42404 6.80754 7.52534 6.84297 7.61832C6.87841 7.71131 6.94019 7.79194 7.02076 7.85033C7.18126 7.96733 7.28251 8.14733 7.32151 8.37008V8.55008C7.35301 8.74958 7.46251 8.94833 7.64176 9.05033C7.82176 9.17108 7.96201 9.35108 8.04001 9.55058L8.09101 9.71108C8.12481 9.80997 8.1862 9.89712 8.26793 9.96225C8.34966 10.0274 8.44833 10.0677 8.55226 10.0786H8.61076C8.79076 10.0786 8.95051 10.1798 9.05251 10.3403C9.15001 10.5008 9.31051 10.6096 9.48976 10.6411L9.77101 10.7191C9.94276 10.7701 10.1033 10.8601 10.2323 10.9883L10.2518 11.0116C10.3048 11.0507 10.3707 11.0681 10.4361 11.0601C10.5015 11.0522 10.5614 11.0195 10.6035 10.9688L10.674 10.8908L10.6605 10.8788ZM11.8005 9.96083C11.898 10.0193 12 9.98783 12.039 9.89858L12.0705 9.85133C12.141 9.71033 12.231 9.57008 12.3285 9.44933L12.5318 9.14858C12.5588 9.14858 12.5708 9.12908 12.579 9.10958L12.8213 8.78933C12.9225 8.69183 13.0403 8.62133 13.1805 8.62133C13.2448 8.62166 13.3077 8.60286 13.3612 8.56734C13.4148 8.53181 13.4566 8.48116 13.4813 8.42183C13.5203 8.28083 13.5788 8.14808 13.7003 8.03933L13.7513 7.98083C13.8525 7.87958 13.9508 7.82858 14.052 7.78133C14.181 7.76183 14.3018 7.73858 14.4233 7.73858H14.7203C14.841 7.73858 14.943 7.69133 15.0015 7.59008C15.06 7.48883 15.15 7.42208 15.2513 7.37108L15.3525 7.32833C15.513 7.26158 15.6923 7.21133 15.8723 7.19183L16.0718 7.17233C16.1925 7.17233 16.3215 7.17233 16.443 7.23908C16.5405 7.30958 16.6733 7.30133 16.7715 7.21958L16.842 7.18058C16.9905 7.07933 17.1623 7.00058 17.3423 6.98108H17.3618C17.5538 6.94734 17.7492 6.93677 17.9438 6.94958H18.0413C18.2408 6.98108 18.4125 7.05083 18.5415 7.19933L18.573 7.23833C18.6743 7.33958 18.831 7.42208 18.9713 7.42208H19.143C19.194 7.42208 19.2405 7.39883 19.272 7.35158C19.3059 7.3157 19.3518 7.29354 19.401 7.28933H19.5023C19.6433 7.28933 19.7715 7.32833 19.9005 7.37108L20.0723 7.44158C20.2328 7.48883 20.4008 7.53908 20.5725 7.55858H20.6933C20.7713 7.55858 20.8223 7.51133 20.8223 7.44158C20.826 7.34304 20.8015 7.24547 20.7518 7.16033L20.6813 6.99983C20.6033 6.87083 20.5403 6.73058 20.4818 6.60158L20.4623 6.55058C20.4372 6.50443 20.4241 6.45274 20.4241 6.40021C20.4241 6.34768 20.4372 6.29599 20.4623 6.24983V6.19883C20.4722 6.15896 20.4674 6.11686 20.4488 6.08023C20.4302 6.04359 20.399 6.01488 20.361 5.99933H20.283C20.125 5.95199 19.9849 5.85817 19.881 5.73008L19.7835 5.62883C19.6823 5.53133 19.623 5.37908 19.5803 5.23058C19.533 5.10158 19.4243 5.00033 19.2833 5.00033H18.861C18.7878 4.99003 18.7173 4.96538 18.6536 4.9278C18.5899 4.89023 18.5342 4.84045 18.4898 4.78133L18.4508 4.73033C18.3785 4.62586 18.3219 4.51141 18.2828 4.39058C18.2318 4.28933 18.1223 4.23008 18.021 4.26158L17.9003 4.30058C17.7008 4.37108 17.502 4.39808 17.3025 4.37858L17.142 4.35908C16.9703 4.35908 16.8098 4.28858 16.6808 4.19108L16.5795 4.12058C16.5034 4.06192 16.4193 4.01444 16.3298 3.97958C16.2323 3.94058 16.1498 3.96008 16.0913 4.03058L16.0403 4.08908C15.9388 4.19465 15.806 4.26463 15.6615 4.28858L15.1223 4.32008C15.0203 4.32391 14.9237 4.3672 14.853 4.44083C14.7756 4.50999 14.6811 4.55713 14.5793 4.57733H14.5598C14.4623 4.57733 14.3603 4.64783 14.2628 4.71833V4.73783C14.2154 4.78603 14.1589 4.82431 14.0966 4.85045C14.0342 4.87659 13.9673 4.89006 13.8998 4.89008L13.8608 4.90958C13.74 4.90958 13.6223 4.90958 13.5015 4.94108H13.3808C13.2128 4.96808 13.08 5.10908 13.041 5.28908L13.002 5.51933C12.9699 5.67617 12.9016 5.82333 12.8025 5.94908C12.7013 6.06983 12.5798 6.14858 12.4313 6.14858H12.2633C12.162 6.17183 12.06 6.28133 12.0795 6.39833C12.1028 6.57008 12.0795 6.71858 12.0525 6.87083L12.0135 7.03883C11.9963 7.11 11.9626 7.17609 11.915 7.23174C11.8674 7.28739 11.8074 7.33102 11.7398 7.35908L11.6813 7.39058H11.6618C11.6033 7.42958 11.5605 7.51958 11.6108 7.59008C11.6684 7.67913 11.6933 7.78544 11.6813 7.89083L11.6498 8.21108C11.6433 8.32669 11.61 8.43919 11.5523 8.53958C11.5235 8.58385 11.5067 8.63475 11.5033 8.68741C11.4998 8.74007 11.51 8.79273 11.5328 8.84033L11.6303 9.05933C11.6816 9.15804 11.6929 9.27276 11.6618 9.37958C11.6275 9.47592 11.6142 9.57845 11.6228 9.68033C11.6228 9.78158 11.6813 9.87983 11.7638 9.92258L11.8005 9.96083ZM19.6995 17.1916C19.8008 17.2891 19.9493 17.3281 20.0708 17.2501L20.2703 17.1211C20.3754 17.0487 20.4527 16.9426 20.4893 16.8203V16.8008L20.5905 16.5001L20.649 16.3988L20.6918 16.3013L20.7308 16.2308C20.7491 16.1891 20.7765 16.152 20.811 16.1223C20.8455 16.0926 20.8863 16.071 20.9303 16.0591L20.9693 16.0396C21.051 16.0201 21.102 15.9421 21.102 15.8596C21.102 15.7621 21.1493 15.6796 21.1995 15.6098L21.2813 15.5393L21.4808 15.2813V15.2618C21.5391 15.1797 21.5802 15.0866 21.6015 14.9881C21.6181 14.887 21.6032 14.7833 21.5588 14.6911L21.5393 14.6483C21.5042 14.5659 21.4805 14.4791 21.4688 14.3903L21.4418 14.1091L21.4103 13.8083C21.4103 13.7108 21.4493 13.6088 21.5115 13.5113C21.5783 13.4296 21.6285 13.3276 21.672 13.2301V13.1911L21.6915 13.1716C21.711 13.0703 21.66 12.9683 21.5708 12.9683C21.4695 12.9211 21.3713 12.8393 21.3405 12.7186L21.309 12.6601C21.26 12.4844 21.2338 12.3032 21.231 12.1208L21.2505 11.6206V11.5891C21.2497 11.5096 21.2178 11.4335 21.1616 11.3773C21.1053 11.3211 21.0293 11.2891 20.9498 11.2883H20.9303C20.8376 11.292 20.7451 11.2761 20.6589 11.2417C20.5728 11.2074 20.4948 11.1553 20.43 11.0888L20.352 10.9876L20.1488 10.7611L19.8908 10.4603C19.7943 10.3211 19.6829 10.1928 19.5585 10.0778C19.461 9.98033 19.3088 9.87833 19.1603 9.85883L18.9608 9.82733C18.8403 9.80246 18.7252 9.75623 18.621 9.69083C18.5393 9.62858 18.4215 9.64808 18.3398 9.72983L18.2108 9.87083L18.1485 9.90983C18.078 9.92933 18.012 9.89033 17.9805 9.80858C17.9382 9.6845 17.9452 9.54892 18 9.42983V9.37133C18 9.30083 17.9415 9.25058 17.8793 9.27008H17.7188C17.538 9.27675 17.358 9.24346 17.1915 9.17258L17.0903 9.12983C16.9882 9.0791 16.8758 9.05242 16.7618 9.05183C16.6562 9.04948 16.5521 9.07649 16.461 9.12983L16.422 9.16133C16.3013 9.23807 16.1629 9.28249 16.02 9.29033H15.6915C15.5465 9.28885 15.4051 9.33554 15.2895 9.42308C15.161 9.50022 15.0194 9.5531 14.8718 9.57908L14.6025 9.62183C14.4704 9.6497 14.3463 9.70714 14.2395 9.78983C14.142 9.89108 14.001 9.95033 13.872 9.98933L13.821 10.0126C13.657 10.0608 13.5157 10.1661 13.4228 10.3096L13.302 10.4303C13.2677 10.4767 13.2492 10.5328 13.2492 10.5905C13.2492 10.6481 13.2677 10.7042 13.302 10.7506C13.3605 10.8518 13.482 10.8796 13.6028 10.8518L13.7513 10.7896C13.8293 10.7626 13.923 10.7896 13.9898 10.8286C14.0235 10.8558 14.0622 10.876 14.1038 10.8881C14.1454 10.9002 14.189 10.904 14.232 10.8991L14.4818 10.8721C14.6228 10.8721 14.763 10.8721 14.8995 10.9111C15.0518 10.9621 15.1808 11.0123 15.3015 11.1106C15.4151 11.2029 15.5539 11.2588 15.6998 11.2711C15.852 11.2906 16.0005 11.3221 16.1415 11.3723L16.239 11.3918C16.3403 11.4233 16.4228 11.4893 16.4813 11.5913C16.5323 11.6731 16.5788 11.7908 16.5788 11.8921V11.9236C16.5788 12.0406 16.68 12.1231 16.782 12.1231H16.8405C17.001 12.1231 17.1728 12.1426 17.3408 12.1936L17.4113 12.2206C17.519 12.2604 17.6127 12.3311 17.6805 12.4238C17.7623 12.5213 17.8095 12.6233 17.841 12.7208L17.8725 12.8618C17.8995 13.0141 17.9115 13.1626 17.9115 13.3231V13.3741C17.9115 13.4716 17.982 13.5736 18.0915 13.6126C18.1928 13.6321 18.3105 13.6748 18.4238 13.7333L18.471 13.7528C18.6038 13.8308 18.7328 13.9328 18.8303 14.0536L18.8813 14.1241C19.014 14.2726 19.0808 14.4638 19.0808 14.6513V14.7218C19.0808 14.8741 19.0538 15.0226 19.0028 15.1636C18.9638 15.2843 19.0028 15.4253 19.1318 15.4643L19.2023 15.5153C19.3545 15.5738 19.4835 15.6833 19.581 15.8123C19.6823 15.9646 19.722 16.1326 19.722 16.3126V16.6133C19.7025 16.7146 19.6748 16.7933 19.6245 16.8631C19.5743 16.9328 19.5735 17.0348 19.6245 17.1053L19.683 17.2028L19.6995 17.1916ZM13.3005 12.0706H13.281C13.2383 12.0706 13.2188 12.1216 13.23 12.1718L13.269 12.3713C13.308 12.5318 13.3275 12.6916 13.3508 12.8521C13.3703 13.0126 13.4483 13.1491 13.5698 13.2503H13.6088C13.6822 13.3081 13.7424 13.3809 13.7855 13.4638C13.8286 13.5467 13.8535 13.6378 13.8585 13.7311V14.2313C13.839 14.3288 13.8585 14.4308 13.9208 14.5126L13.968 14.5598C14.0601 14.6743 14.1134 14.8151 14.1203 14.9618L14.1473 15.5123C14.1473 15.6413 14.0693 15.7508 13.9478 15.7703L13.8503 15.7898C13.7798 15.7898 13.749 15.8716 13.749 15.9421C13.749 16.0201 13.7805 16.1101 13.8075 16.1918V16.2113C13.839 16.3088 13.8503 16.4108 13.839 16.5121L13.8 16.7813C13.7633 16.9769 13.696 17.1655 13.6005 17.3401L13.53 17.4608C13.4866 17.5483 13.415 17.6185 13.3268 17.6603C13.2794 17.6798 13.2369 17.7096 13.2024 17.7474C13.1679 17.7853 13.1423 17.8304 13.1273 17.8793L13.0493 18.2386C12.9925 18.451 12.9043 18.6538 12.7875 18.8401H12.768C12.6487 19.0036 12.4954 19.1395 12.3188 19.2383L12.198 19.3201L11.8973 19.4686C11.8494 19.4907 11.8078 19.5244 11.7764 19.5667C11.7449 19.6091 11.7246 19.6586 11.7173 19.7108L11.67 20.0393C11.6385 20.2388 11.5688 20.4106 11.4278 20.5396L11.2988 20.6918L11.1465 20.8403L10.998 21.0008C10.8773 21.1418 10.6973 21.2003 10.4978 21.1726L10.1385 21.1021L9.80626 21.0593H9.71626C9.67726 21.1021 9.66901 21.1606 9.69676 21.2198C9.76726 21.3406 9.87676 21.4231 9.99751 21.4231L10.2165 21.4621C10.3178 21.4621 10.4393 21.5131 10.5368 21.5596C10.638 21.6301 10.7363 21.6803 10.857 21.7118H10.8765C11.0093 21.7628 11.1458 21.7703 11.2785 21.7628L11.427 21.7396C11.5988 21.7201 11.7593 21.7396 11.8958 21.8018L12.0165 21.8408C12.0675 21.8603 12.1455 21.8408 12.1965 21.7898C12.2538 21.734 12.3216 21.6901 12.396 21.6608L12.4778 21.6413C12.6068 21.6023 12.7358 21.5791 12.876 21.5791H12.9578C13.0748 21.5791 13.188 21.6023 13.2863 21.6608L13.3253 21.6803C13.3958 21.7118 13.4775 21.6803 13.5285 21.6218C13.5555 21.5513 13.626 21.4808 13.6965 21.4223L13.9463 21.2506L14.1068 21.1493L14.1885 21.1021C14.2955 21.0334 14.4206 20.9981 14.5478 21.0008L14.907 20.9693C14.9769 20.9605 15.0426 20.9313 15.0961 20.8854C15.1495 20.8396 15.1884 20.779 15.2078 20.7113C15.2468 20.5591 15.3053 20.4106 15.4073 20.2816C15.5085 20.1488 15.6068 20.0393 15.708 19.9418C15.8205 19.8477 15.9599 19.7915 16.1063 19.7813H16.188C16.2659 19.7657 16.3356 19.723 16.3849 19.6608C16.4342 19.5986 16.4599 19.5209 16.4573 19.4416V18.7696C16.4768 18.6721 16.5158 18.5393 16.5743 18.4411L16.7775 18.1403L16.8555 18.0391C16.9178 17.9881 16.9568 17.9221 17.0273 17.8396L17.1248 17.7106C17.187 17.6093 17.187 17.4803 17.1053 17.3903C17.0115 17.2845 16.9528 17.1522 16.9373 17.0116V16.9688C16.9136 16.8019 16.9227 16.632 16.9643 16.4686V16.4213C17.0153 16.2886 17.085 16.1596 17.1675 16.0388C17.2057 15.9921 17.2238 15.9322 17.2179 15.8722C17.212 15.8122 17.1826 15.7569 17.136 15.7186L16.9643 15.5701C16.827 15.4456 16.7418 15.2739 16.7258 15.0893L16.7063 14.8898C16.7063 14.8276 16.7063 14.7608 16.6868 14.6903L16.6673 14.5381C16.6545 14.4569 16.6245 14.3794 16.5794 14.3107C16.5342 14.242 16.475 14.1838 16.4055 14.1398L16.335 14.1203C16.2239 14.0507 16.1282 13.9591 16.0538 13.8511C15.9758 13.7498 15.9368 13.6088 15.9053 13.4686L15.8738 13.3006C15.8738 13.2383 15.8348 13.1993 15.7763 13.1716L15.2955 13.0193C15.1943 12.9998 15.096 12.9218 15.0263 12.8513H15.0068C14.9445 12.7696 14.8463 12.7696 14.784 12.8281L14.6865 12.9293C14.667 12.9608 14.6438 12.9683 14.616 12.9608C14.5538 12.9608 14.5148 12.9098 14.5343 12.8596C14.5455 12.7813 14.5359 12.7015 14.5064 12.6281C14.4769 12.5548 14.4285 12.4905 14.3663 12.4418L14.2335 12.3406L13.9365 12.1411C13.8548 12.1096 13.7333 12.1411 13.6943 12.2386L13.6553 12.3008C13.6553 12.3203 13.6238 12.3278 13.6163 12.3398C13.5735 12.3398 13.515 12.3398 13.515 12.2888L13.4835 12.2378C13.4565 12.1793 13.386 12.1403 13.323 12.1208L13.3005 12.0706ZM12.1013 13.0703L12.0503 13.0193C11.9993 12.9803 11.949 12.9878 11.898 13.0388C11.8261 13.1578 11.772 13.2867 11.7375 13.4213V13.4408C11.7105 13.5698 11.589 13.6598 11.4683 13.6403H11.3513C11.284 13.6417 11.2201 13.6696 11.1733 13.7179C11.1265 13.7662 11.1007 13.8311 11.1015 13.8983C11.1015 14.0783 11.0393 14.2613 10.9298 14.3986L10.8713 14.4608C10.7662 14.5876 10.6265 14.6812 10.4693 14.7301L10.3913 14.7496C10.3402 14.7626 10.2941 14.7903 10.2587 14.8292C10.2232 14.8681 10.2 14.9166 10.1918 14.9686C10.1918 15.0698 10.1295 15.1718 10.0508 15.2498L9.94951 15.3278C9.82876 15.4606 9.64876 15.5311 9.46876 15.5506L8.96851 15.6016C8.80801 15.6016 8.67151 15.6991 8.57026 15.8513C8.46901 15.9998 8.32051 16.1011 8.17201 16.1206L7.94926 16.1401C7.78264 16.1626 7.61337 16.156 7.44901 16.1206L7.35151 16.1011L7.07776 16.0306C7.03569 16.0154 6.98986 16.014 6.94696 16.0267C6.90406 16.0394 6.86633 16.0655 6.83927 16.1011L6.73801 16.2301C6.67691 16.3012 6.5995 16.3565 6.51239 16.3913C6.42528 16.426 6.33106 16.4392 6.23777 16.4296L5.58902 16.3516C5.48777 16.3516 5.40902 16.3006 5.31977 16.2503C5.21852 16.1918 5.14802 16.1213 5.07752 16.0508L4.82776 15.7501C4.80076 15.7306 4.74977 15.7186 4.69877 15.7306L4.55777 15.7891L3.99901 15.9301C3.89776 15.9616 3.76877 15.9301 3.67052 15.8716C3.56927 15.7898 3.44777 15.7703 3.32702 15.7703H3.19802C3.16872 15.7778 3.14123 15.7911 3.11718 15.8094C3.09314 15.8277 3.07302 15.8506 3.05804 15.8769C3.04306 15.9031 3.03352 15.9321 3.03 15.9621C3.02647 15.9922 3.02903 16.0226 3.03752 16.0516L3.07652 16.2511C3.10802 16.3523 3.09977 16.4701 3.04952 16.5713C2.99927 16.6726 3.01052 16.7708 3.07652 16.8721L3.13877 16.9501C3.21677 17.0708 3.33827 17.1728 3.43952 17.2703C3.53702 17.3716 3.63902 17.4698 3.71702 17.6026L3.86927 17.8718C3.90223 17.9386 3.95351 17.9947 4.01712 18.0335C4.08072 18.0722 4.15403 18.0921 4.22852 18.0908C4.37702 18.0908 4.52927 18.1418 4.64627 18.2393L4.94702 18.5206C5.02877 18.5911 5.14652 18.6023 5.22827 18.5401L5.27927 18.5206C5.33777 18.5206 5.37677 18.5596 5.37677 18.6218V18.6728C5.37677 18.8018 5.47802 18.9226 5.60702 18.9698L6.05626 19.0711C6.21676 19.1221 6.37651 19.1723 6.52876 19.2706H6.60676C6.62697 19.2705 6.64693 19.2662 6.66532 19.2578C6.68372 19.2495 6.70013 19.2373 6.71346 19.2221C6.7268 19.207 6.73675 19.1891 6.74266 19.1698C6.74858 19.1505 6.75032 19.1301 6.74776 19.1101V18.7621C6.74776 18.6608 6.78676 18.5588 6.86851 18.5198L6.91951 18.5003C6.96676 18.5198 7.01701 18.5588 6.99751 18.6016V18.7696C6.99751 18.8986 7.03651 19.0193 7.12651 19.1093C7.16909 19.1545 7.22389 19.1863 7.28422 19.2008C7.34456 19.2153 7.40781 19.2119 7.46626 19.1911C7.58701 19.1401 7.70851 19.1288 7.83751 19.1401L8.20876 19.1596C8.38876 19.1791 8.55677 19.1596 8.70902 19.0891C8.88902 19.0306 9.03752 18.9481 9.17777 18.8393L9.23626 18.8003L9.53701 18.5311C9.62954 18.4359 9.756 18.3811 9.88877 18.3788H10.287C10.3883 18.3654 10.4824 18.3193 10.555 18.2473C10.6276 18.1754 10.6747 18.0817 10.689 17.9806L10.728 17.7811C10.728 17.6483 10.7865 17.5313 10.8765 17.4293C10.9778 17.3281 11.076 17.2688 11.1773 17.2298L11.298 17.1788C11.3827 17.1418 11.4586 17.0871 11.5206 17.0184C11.5825 16.9498 11.6291 16.8687 11.6573 16.7806L11.7158 16.5383C11.7668 16.3388 11.868 16.1401 12.0165 16.0111L12.036 15.9878C12.1568 15.8903 12.177 15.6908 12.0983 15.5506L12.0668 15.4801C12.0318 15.424 12.0107 15.3604 12.0052 15.2945C11.9997 15.2286 12.01 15.1624 12.0353 15.1013C12.0863 14.9603 12.1365 14.8396 12.2153 14.7188L12.3165 14.5778C12.3555 14.4998 12.3555 14.3783 12.297 14.3086C12.2336 14.2298 12.198 14.1322 12.1958 14.0311L12.1763 13.8901V13.5503C12.1911 13.4386 12.1804 13.325 12.1448 13.2181L12.1058 13.1011L12.1013 13.0703ZM10.6718 12.3083V12.2813C10.6718 12.1801 10.6095 12.1208 10.5308 12.1208H10.269C10.1763 12.1404 10.0805 12.1404 9.98777 12.1208H9.53852C9.30827 12.1208 9.08926 12.0781 8.87026 12.0196L8.62801 11.9611L8.42851 11.8988L7.97926 11.7503C7.86395 11.7174 7.75697 11.6603 7.66541 11.5829C7.57386 11.5054 7.49984 11.4093 7.44826 11.3011L7.39726 11.1998C7.32676 11.0513 7.17826 10.9696 7.02976 11.0003C6.85801 11.0003 6.69002 11.0003 6.52952 10.9223L6.40876 10.8713C6.17851 10.7701 6.01052 10.5706 6.01052 10.3013L5.96776 10.0321C5.94076 9.89108 5.85077 9.76283 5.72927 9.71183C5.58869 9.64718 5.45416 9.57013 5.32727 9.48158L5.28002 9.45008C5.12191 9.32913 5.00021 9.16694 4.92827 8.98133L4.90877 8.92283C4.8573 8.76089 4.85056 8.58804 4.88927 8.42258L4.90877 8.36033C4.94777 8.23133 4.95977 8.10233 4.95977 7.96208C4.95826 7.83711 4.9076 7.71775 4.81877 7.62983L4.67777 7.50083C4.59794 7.43635 4.53268 7.35569 4.48627 7.26417C4.43986 7.17265 4.41336 7.07234 4.40851 6.96983C4.38563 6.75645 4.39219 6.54093 4.42801 6.32933V6.27083C4.42782 6.21798 4.40674 6.16735 4.36936 6.12998C4.33199 6.09261 4.28137 6.07153 4.22852 6.07133H4.19702C4.06802 6.07133 3.95852 6.14933 3.89627 6.27083C3.84651 6.40329 3.77221 6.52517 3.67727 6.63008L3.63827 6.68108L3.33751 6.98183C3.23626 7.07933 3.17702 7.23158 3.15752 7.38008C3.13879 7.53239 3.09812 7.68118 3.03676 7.82183L3.01726 7.87283C2.96899 7.99198 2.88944 8.09589 2.78702 8.17358C2.73785 8.21111 2.69739 8.25882 2.66839 8.31345C2.63939 8.36808 2.62255 8.42834 2.61902 8.49008L2.59952 8.95133C2.59952 9.15083 2.56802 9.35333 2.49827 9.55283L2.47877 9.63083C2.45318 9.69122 2.45141 9.75906 2.47381 9.8207C2.49622 9.88234 2.54113 9.93321 2.59952 9.96308L3.01726 10.1431L3.05626 10.1626C3.08776 10.1626 3.09902 10.1821 3.10727 10.2136C3.13877 10.2526 3.10727 10.3111 3.07577 10.3111L2.97827 10.3621C2.91977 10.3816 2.87702 10.4438 2.85752 10.5143L2.83802 10.6118V10.6313L2.73677 11.1938C2.71727 11.2718 2.71727 11.3618 2.71727 11.4518C2.71733 11.4904 2.72883 11.5281 2.75033 11.5602C2.77182 11.5922 2.80234 11.6171 2.83802 11.6318L3.05702 11.7331C3.15827 11.7916 3.27977 11.8621 3.35777 11.9326L3.45902 12.0143C3.49027 12.0551 3.53024 12.0885 3.57602 12.1118L3.61876 12.1508C3.68764 12.2118 3.73674 12.292 3.75977 12.3811L3.85727 12.8303C3.85727 12.9511 3.95852 13.0531 4.05677 13.0801L4.21727 13.1311C4.21727 13.1311 4.24877 13.1311 4.26827 13.1506L4.46776 13.2128C4.62826 13.2638 4.76852 13.3538 4.89002 13.4708C5.01077 13.5721 5.12852 13.7011 5.22977 13.8421L5.26877 13.8811C5.35052 13.9823 5.46827 14.0333 5.58902 14.0018C5.70977 13.9703 5.83876 13.9628 5.96776 13.9628H6.12001C6.21751 13.9628 6.35026 13.9898 6.45976 14.0603C6.55726 14.1226 6.69001 14.1616 6.80776 14.2126H6.83927C6.89658 14.2355 6.95867 14.244 7.02003 14.2372C7.08139 14.2304 7.14012 14.2085 7.19102 14.1736C7.29322 14.093 7.42016 14.0504 7.55027 14.0528L8.01902 14.0798C8.12027 14.0798 8.21851 14.0603 8.26876 13.9823H8.28826L8.46001 13.8218L8.51101 13.7708C8.5506 13.7255 8.59918 13.6889 8.65366 13.6633C8.70815 13.6378 8.76735 13.6238 8.82752 13.6223H9.28051C9.39751 13.6223 9.51077 13.5211 9.55802 13.4228C9.58428 13.3706 9.62223 13.325 9.66892 13.2898C9.71561 13.2545 9.76979 13.2305 9.82726 13.2196L10.0305 13.1806C10.1085 13.1806 10.179 13.1101 10.2105 13.0201C10.2344 12.9273 10.2863 12.844 10.359 12.7816L10.5195 12.6211C10.611 12.5366 10.6715 12.4238 10.6913 12.3008L10.6718 12.3083Z" fill="#232E35"/>
</g>
<defs>
<clipPath id="clip0_129_11">
<rect width="24" height="24" fill="white"/>
</clipPath>
</defs>
</svg>
